<?xml version="1.0" standalone="no"?>
<!DOCTYPE svg PUBLIC "-//W3C//DTD SVG 20010904//EN"
 "http://www.w3.org/TR/2001/REC-SVG-20010904/DTD/svg10.dtd">
<svg version="1.0" xmlns="http://www.w3.org/2000/svg"
 width="1290.000000pt" height="1107.000000pt" viewBox="0 0 1290.000000 1107.000000"
 preserveAspectRatio="xMidYMid meet">

<g transform="translate(0.000000,1107.000000) scale(0.100000,-0.100000)"
fill="#000000" stroke="none">
<path d="M6149 10396 c-2 -2 -62 -9 -134 -15 -374 -32 -569 -64 -965 -161
-163 -40 -523 -161 -664 -224 -17 -8 -51 -22 -76 -33 -89 -36 -418 -202 -529
-267 -877 -514 -1583 -1268 -2022 -2162 -49 -99 -89 -186 -89 -192 0 -23 -22
-12 -75 37 -84 76 -168 136 -242 171 -125 60 -139 63 -273 64 -108 0 -147 -7
-214 -39 -41 -20 -106 -78 -106 -96 0 -19 49 -59 73 -59 31 0 109 -42 166 -88
49 -40 145 -166 247 -322 37 -58 93 -136 124 -175 31 -38 59 -75 63 -81 3 -6
-3 -39 -15 -75 -11 -35 -24 -77 -28 -94 -65 -241 -112 -464 -139 -665 -42
-308 -51 -435 -51 -724 0 -335 17 -548 71 -884 22 -138 86 -435 109 -502 4
-14 18 -59 30 -100 49 -171 142 -430 195 -545 14 -31 25 -58 25 -60 0 -8 167
-347 197 -400 310 -549 671 -989 1138 -1384 233 -197 526 -401 775 -540 93
-52 393 -202 440 -221 19 -7 58 -24 85 -36 543 -242 1370 -414 1985 -415 205
0 617 41 825 81 212 42 277 56 400 87 251 63 554 164 740 247 28 12 66 29 85
36 57 22 378 185 475 241 746 429 1379 1054 1810 1785 163 277 352 695 441
974 8 25 18 59 24 75 14 46 76 274 88 325 6 25 15 65 21 90 79 336 121 735
121 1136 0 357 -30 672 -96 1004 -36 184 -108 463 -143 553 -6 16 -11 32 -11
37 0 5 26 42 58 82 32 40 111 154 177 253 67 102 144 204 176 236 57 57 164
119 204 119 51 0 61 61 18 102 -69 64 -230 105 -345 87 -149 -22 -290 -98
-440 -236 -32 -29 -62 -53 -67 -53 -5 0 -50 82 -100 183 -185 370 -383 672
-660 1007 -103 124 -431 459 -539 552 -297 252 -518 409 -822 586 -145 84
-437 232 -539 272 -30 11 -73 29 -95 39 -23 10 -68 28 -101 40 -33 13 -69 27
-80 32 -55 23 -297 98 -485 149 -242 65 -527 114 -825 139 -71 6 -171 16 -222
21 -94 10 -186 13 -194 6z m-17 -181 c-3 -24 -14 -53 -30 -73 -136 -167 -197
-276 -235 -417 -61 -222 -63 -382 -11 -675 15 -82 27 -130 46 -179 18 -49 -6
-32 -110 76 -143 148 -222 213 -410 336 -166 110 -325 192 -482 250 -139 51
-310 108 -350 117 -142 31 -210 42 -314 50 -66 6 -124 14 -129 19 -9 9 32 30
183 98 30 14 75 34 99 45 124 56 369 142 576 202 139 41 174 50 288 76 233 53
705 119 832 116 l50 -1 -3 -40z m395 30 c639 -61 1115 -185 1683 -437 172 -77
180 -88 59 -88 -124 0 -383 -47 -451 -81 -10 -5 -25 -9 -33 -9 -8 0 -23 -4
-33 -10 -9 -5 -39 -17 -67 -25 -382 -123 -748 -352 -1020 -638 -120 -127 -130
-130 -99 -32 27 88 38 159 60 399 4 38 2 114 -5 170 -33 283 -94 429 -259 619
-42 48 -68 107 -58 132 7 19 32 19 223 0z m-262 -191 c59 -28 131 -109 173
-197 51 -103 70 -166 92 -302 18 -106 4 -378 -25 -485 -3 -14 -11 -45 -17 -70
-12 -55 -94 -303 -113 -345 -7 -16 -25 -58 -39 -92 -14 -35 -37 -87 -50 -115
-13 -29 -31 -72 -41 -96 l-18 -42 -37 87 c-21 49 -51 117 -67 153 -25 55 -65
151 -93 225 -4 11 -18 54 -30 95 -13 41 -29 93 -35 115 -7 22 -18 67 -25 100
-6 33 -16 79 -21 102 -13 59 -11 353 2 410 33 141 44 176 85 259 46 95 104
162 165 195 42 23 53 23 94 3z m2271 -410 c186 -99 530 -322 516 -336 -4 -4
-23 -3 -42 2 -71 19 -246 40 -334 40 -92 0 -289 -21 -381 -40 -27 -6 -75 -15
-105 -21 -30 -6 -66 -15 -80 -19 -14 -4 -47 -14 -75 -20 -91 -23 -321 -102
-445 -155 -193 -81 -446 -223 -560 -314 -251 -200 -335 -281 -485 -469 -108
-136 -178 -246 -258 -410 l-60 -124 -22 54 c-84 203 -253 451 -450 656 -94 99
-323 285 -453 369 -122 79 -341 188 -502 250 -36 14 -74 29 -85 34 -53 22
-307 99 -400 120 -338 77 -650 86 -873 28 -48 -13 -65 -6 -36 16 107 83 439
292 545 343 l46 22 174 -15 c169 -14 242 -24 324 -43 40 -9 331 -105 370 -121
11 -5 52 -22 90 -37 406 -162 820 -489 1027 -814 100 -157 150 -261 179 -375
22 -87 41 -120 68 -120 21 0 28 9 44 55 10 30 25 78 33 107 31 117 168 360
278 491 80 97 281 292 364 354 165 124 464 290 612 341 25 9 90 32 145 52 272
99 421 128 677 133 81 2 90 0 154 -34z m434 -404 c56 -12 121 -28 143 -37 101
-37 203 -86 237 -113 23 -18 23 -20 5 -20 -11 0 -40 7 -65 16 -24 8 -65 20
-90 25 -25 6 -65 15 -90 20 -98 22 -211 33 -340 33 -176 1 -244 -6 -450 -46
-79 -15 -247 -62 -315 -88 -11 -5 -36 -14 -55 -21 -89 -32 -295 -130 -395
-187 -394 -226 -714 -499 -998 -854 -86 -108 -206 -321 -312 -553 -15 -32 -19
-36 -23 -20 -7 35 -122 264 -184 369 -100 166 -237 334 -425 517 -268 262
-651 520 -978 658 -44 19 -93 40 -110 47 -87 37 -333 108 -435 125 -339 55
-622 44 -880 -36 -47 -14 -96 -29 -110 -32 -51 -12 9 34 104 80 196 96 277
112 571 112 218 0 259 -3 435 -36 370 -70 768 -238 1100 -466 157 -108 278
-209 415 -347 148 -149 215 -234 309 -391 85 -141 126 -237 155 -365 5 -19 12
-43 16 -52 8 -21 44 -24 49 -5 2 6 9 32 16 57 39 148 108 303 195 436 188 288
493 570 851 787 81 49 295 158 397 202 57 24 315 111 372 124 28 7 66 16 85
21 19 5 78 17 130 26 52 9 113 19 135 24 22 4 128 8 236 9 161 1 215 -3 299
-19z m-45 -155 c78 -6 138 -16 220 -37 190 -50 426 -173 545 -285 19 -18 38
-33 42 -33 12 0 209 -221 313 -351 179 -223 328 -444 473 -700 65 -115 202
-391 202 -406 0 -5 -18 -35 -40 -66 -22 -30 -63 -95 -91 -144 -47 -82 -112
-163 -131 -163 -4 0 -8 22 -8 49 0 145 -166 301 -320 301 -32 0 -61 4 -64 9
-7 10 109 145 166 192 85 71 129 94 176 94 32 0 48 5 56 18 9 15 4 24 -34 57
-25 22 -59 42 -76 45 -64 13 -232 -52 -344 -133 -40 -30 -202 -190 -244 -242
l-28 -35 7 45 c11 73 59 244 84 305 85 200 184 311 274 308 23 0 57 -4 75 -8
30 -7 32 -6 32 22 0 23 -13 42 -60 87 -127 121 -308 157 -436 85 -40 -22 -134
-98 -167 -134 -32 -35 -118 -168 -139 -215 -39 -86 -161 -273 -220 -336 -82
-88 -114 -105 -196 -109 -37 -2 -80 -8 -96 -15 -16 -6 -31 -8 -34 -5 -11 11
26 63 96 134 40 41 71 79 69 85 -2 6 -29 11 -63 10 -64 -1 -96 -16 -194 -90
-101 -76 -198 -125 -304 -154 -97 -26 -117 -25 -211 5 -101 33 -126 47 -163
90 -40 44 -47 71 -47 165 0 70 3 79 37 130 44 65 108 132 163 169 61 42 126
69 305 128 320 106 534 239 657 411 61 84 83 146 83 230 0 80 -20 112 -71 112
-28 0 -29 -1 -23 -38 17 -105 -69 -214 -196 -251 -25 -7 -55 -17 -67 -21 -11
-5 -74 -12 -140 -15 -111 -6 -154 -4 -388 26 -229 29 -575 34 -675 9 -19 -4
-60 -14 -90 -20 -186 -40 -476 -163 -608 -257 -93 -66 -218 -188 -259 -250
-29 -47 -38 -53 -67 -53 -18 0 -47 -5 -65 -11 -69 -24 -56 6 79 176 219 277
505 526 825 720 71 44 307 165 320 165 3 0 24 9 48 19 90 41 285 105 402 132
94 22 246 42 390 52 49 4 64 3 220 -8z m-5065 -20 c181 -19 196 -21 300 -47
469 -114 919 -362 1305 -722 169 -157 413 -452 392 -473 -3 -3 -37 1 -75 8
-67 12 -70 15 -98 58 -16 25 -58 75 -95 111 -219 216 -559 365 -960 421 -147
20 -481 -3 -728 -51 -82 -16 -281 -12 -364 6 -190 42 -296 144 -285 274 3 31
0 35 -23 38 -57 7 -89 -103 -58 -199 31 -95 113 -209 206 -284 112 -92 305
-193 468 -246 55 -17 134 -43 175 -56 129 -43 198 -82 274 -158 96 -95 131
-161 129 -240 -2 -116 -46 -176 -169 -231 -51 -24 -72 -28 -154 -28 -141 0
-250 43 -417 165 -85 63 -119 79 -180 81 -81 4 -81 -15 0 -91 59 -56 107 -124
96 -135 -2 -2 -31 2 -64 10 -33 8 -72 11 -87 8 -84 -17 -255 171 -393 432
-102 193 -180 282 -320 359 -45 25 -59 28 -140 27 -129 -1 -204 -33 -299 -130
-50 -51 -58 -64 -52 -86 6 -26 38 -36 51 -16 10 15 98 12 133 -6 35 -17 103
-91 128 -138 45 -83 83 -165 94 -201 7 -22 16 -49 21 -60 4 -11 10 -33 14 -50
3 -16 11 -48 16 -70 6 -22 13 -56 15 -75 l5 -35 -26 30 c-90 101 -209 214
-268 252 -117 76 -188 104 -276 106 -72 2 -79 0 -111 -27 -64 -53 -57 -86 19
-86 25 -1 56 -6 67 -13 76 -43 264 -225 264 -256 0 -6 -14 -11 -32 -11 -69 0
-172 -45 -234 -102 -57 -53 -90 -108 -105 -178 -6 -30 -15 -61 -19 -68 -10
-19 -71 54 -122 146 -22 40 -59 99 -82 130 -23 31 -45 62 -49 69 -10 16 149
342 258 528 117 199 195 317 328 493 242 323 443 528 612 623 218 122 374 173
605 197 127 13 152 13 310 -3z m5306 -637 c-28 -40 -139 -149 -196 -193 -56
-43 -234 -135 -261 -135 -8 0 -19 -4 -25 -8 -5 -4 -27 -14 -49 -21 -83 -26
-260 -95 -355 -138 -73 -33 -170 -103 -215 -155 -20 -24 -52 -75 -71 -114 -49
-103 -47 -198 8 -299 21 -39 59 -74 128 -117 95 -60 139 -72 238 -65 48 3 101
11 117 18 17 6 44 18 60 25 93 39 103 37 67 -14 -36 -51 -78 -138 -126 -257
-86 -216 -165 -357 -228 -410 -64 -55 -193 -94 -254 -79 -30 8 -30 15 1 63 59
88 81 214 54 300 -63 198 -197 298 -371 275 -90 -12 -212 -114 -266 -222 -9
-18 -34 -43 -57 -56 -59 -35 -118 -103 -154 -179 -17 -36 -36 -69 -42 -73 -19
-11 -90 78 -129 160 -59 128 -64 149 -63 291 0 141 4 161 64 285 70 143 144
215 288 275 83 35 97 49 87 88 -10 42 -52 57 -159 57 -101 0 -151 -14 -250
-72 -138 -81 -220 -158 -293 -277 -27 -45 -52 -81 -56 -81 -15 0 -8 61 18 141
40 128 91 205 170 260 24 16 44 38 44 48 0 16 -70 71 -90 71 -23 0 -15 35 17
77 140 185 402 342 723 433 213 61 238 64 470 64 204 0 345 -12 503 -44 80
-16 346 -12 419 6 74 19 199 77 225 106 15 17 18 18 21 4 2 -8 -4 -26 -12 -38z
m-5853 -2 c51 -38 109 -64 193 -86 70 -19 98 -21 249 -17 94 3 199 10 235 16
318 50 494 60 652 37 114 -17 192 -32 238 -46 14 -4 45 -13 70 -20 25 -7 54
-16 65 -20 11 -5 54 -21 95 -36 158 -57 329 -160 446 -267 58 -52 114 -126
114 -149 0 -7 -22 -28 -50 -46 -27 -18 -50 -39 -50 -46 0 -8 15 -25 33 -38 60
-47 107 -102 140 -168 33 -63 43 -93 66 -193 21 -92 13 -88 -57 25 -93 151
-240 268 -417 333 -142 51 -286 24 -293 -56 l-3 -35 83 -33 c132 -54 202 -111
270 -221 62 -101 85 -167 99 -288 16 -123 -17 -271 -89 -399 -26 -47 -79 -103
-98 -103 -7 0 -25 28 -42 63 -36 75 -91 140 -151 179 -27 16 -58 49 -76 79
-38 61 -118 145 -160 167 -100 54 -169 56 -271 7 -83 -40 -128 -87 -171 -181
-36 -78 -44 -199 -17 -271 20 -54 53 -115 68 -124 17 -12 -2 -36 -32 -42 -43
-9 -150 24 -212 63 -81 52 -158 174 -240 379 -44 111 -109 247 -139 290 -10
14 -21 34 -24 44 -6 15 -3 17 16 11 12 -3 34 -13 50 -21 59 -30 154 -53 221
-53 58 0 79 5 140 35 102 50 164 101 200 165 28 50 30 62 31 150 0 86 -3 100
-29 149 -40 74 -125 162 -201 210 -36 23 -67 41 -70 41 -3 0 -27 9 -53 21 -68
30 -77 34 -187 74 -55 20 -108 41 -117 46 -10 5 -26 9 -36 9 -10 0 -22 4 -28
8 -5 5 -29 15 -54 23 -69 21 -138 56 -218 112 -107 74 -266 247 -226 247 3 0
20 -11 37 -24z m6659 -370 c81 -36 122 -86 72 -86 -41 0 -153 -102 -190 -174
-46 -87 -63 -127 -84 -191 -36 -114 -40 -131 -40 -150 0 -10 -4 -32 -9 -49 -6
-17 -17 -64 -26 -105 -22 -102 -45 -157 -92 -227 -82 -119 -218 -230 -321
-260 -30 -9 -55 -14 -57 -12 -2 2 12 27 30 57 19 30 40 78 46 108 24 105 -25
212 -127 280 -30 20 -54 38 -54 41 0 2 30 32 67 66 74 68 165 201 251 366 52
102 106 183 148 226 18 19 117 86 179 121 37 21 149 15 207 -11z m-7303 -11
c23 -8 61 -28 85 -45 25 -16 48 -30 51 -30 38 0 135 -121 215 -269 110 -203
170 -290 263 -376 l68 -64 -45 -26 c-55 -32 -110 -92 -131 -141 -17 -41 -21
-169 -5 -179 6 -3 10 -13 10 -22 0 -9 15 -37 34 -63 19 -27 32 -50 30 -53 -9
-9 -95 22 -152 55 -75 43 -193 157 -240 232 -47 76 -60 109 -91 246 -10 43
-44 182 -61 245 -11 43 -40 113 -68 165 -63 114 -119 175 -194 210 -27 12 -48
26 -48 31 0 13 72 58 126 79 61 23 100 24 153 5z m3146 -270 c80 -12 103 -24
133 -73 67 -105 144 -273 214 -464 6 -16 13 -28 17 -29 46 -7 93 -5 104 4 8 7
27 46 42 87 14 41 30 84 34 95 33 87 167 339 187 352 50 32 191 54 223 34 11
-7 4 -20 -33 -63 -50 -56 -106 -160 -131 -243 -25 -86 -39 -247 -27 -323 6
-41 7 -86 2 -117 -21 -122 -2 -327 42 -460 25 -75 86 -180 140 -239 62 -69
170 -147 228 -164 80 -24 120 -32 166 -32 48 0 50 -2 112 -70 35 -39 62 -76
59 -83 -8 -21 -176 -101 -272 -130 -49 -15 -105 -32 -123 -38 -45 -15 -282
-14 -329 1 -59 19 -64 26 -47 65 8 19 14 39 14 44 0 13 -131 173 -188 231 -50
50 -90 107 -116 163 -9 20 -23 37 -31 37 -9 0 -29 -29 -45 -64 -18 -37 -58
-93 -94 -133 -36 -38 -92 -103 -126 -144 -55 -67 -60 -77 -55 -109 12 -74 12
-72 -30 -86 -22 -7 -69 -18 -105 -24 -127 -21 -399 42 -561 130 -89 48 -90 52
-33 112 27 28 59 62 71 74 19 20 32 24 84 24 209 0 431 193 507 440 39 124 42
161 42 455 -1 331 -9 393 -72 532 -30 65 -88 149 -120 171 -10 7 -18 18 -18
23 0 14 41 29 70 24 14 -2 43 -6 65 -10z m-597 -146 c90 -20 127 -33 187 -68
111 -64 227 -164 249 -216 7 -16 27 -61 44 -100 60 -135 63 -155 59 -298 -4
-132 -11 -184 -27 -222 -5 -11 -16 -42 -26 -69 -20 -56 -98 -180 -142 -225
-46 -49 -141 -101 -183 -101 l-37 0 -5 53 c-4 28 -10 70 -15 92 -8 39 -7 41
48 95 77 76 125 174 159 323 14 62 14 204 0 264 -43 180 -180 378 -302 434
-49 22 -86 49 -68 49 7 0 33 -5 59 -11z m2082 7 c0 -3 -24 -16 -54 -31 -103
-50 -192 -150 -254 -285 -46 -100 -53 -127 -58 -240 -7 -144 10 -244 60 -354
37 -80 83 -142 124 -168 38 -23 37 -8 14 -173 -9 -62 -27 -67 -104 -31 -98 46
-173 126 -235 251 -57 112 -69 153 -84 279 -17 132 -1 235 51 351 10 22 26 62
36 89 36 98 248 263 389 302 40 11 115 18 115 10z m2940 -46 c0 -5 -4 -10 -10
-10 -5 0 -43 -32 -84 -70 -73 -70 -157 -181 -190 -253 -10 -22 -39 -53 -74
-79 -31 -23 -62 -47 -68 -53 -26 -25 -65 -98 -84 -159 -12 -36 -30 -72 -39
-79 -10 -6 -36 -37 -57 -68 -107 -153 -203 -248 -349 -346 -213 -144 -437
-194 -620 -139 -28 9 -59 22 -69 29 -21 15 -18 26 29 132 33 74 90 270 114
390 7 33 16 83 22 110 19 98 52 185 75 200 123 80 226 75 337 -16 54 -44 77
-96 77 -169 0 -69 -21 -120 -71 -170 -28 -27 -38 -31 -68 -26 -40 6 -98 49
-122 92 -27 45 -23 84 12 127 35 42 32 55 -9 41 -17 -6 -36 -26 -51 -55 -24
-44 -24 -49 -11 -89 21 -63 61 -113 111 -137 127 -61 187 -59 336 13 102 50
181 128 331 326 175 232 330 380 457 437 17 7 37 17 45 22 21 11 30 11 30 -1z
m1274 -8 c27 -9 51 -22 53 -28 2 -6 -16 -19 -39 -29 -131 -57 -219 -147 -376
-385 -328 -495 -440 -594 -776 -691 -207 -60 -450 -25 -671 98 -33 19 -70 39
-82 45 -13 6 -23 18 -23 26 0 23 93 142 110 139 8 -1 17 -16 21 -33 13 -64 74
-133 96 -110 3 3 -9 37 -26 76 -31 67 -33 76 -29 163 3 74 9 103 31 149 60
126 233 219 355 188 102 -25 200 -110 231 -199 14 -44 14 -132 -1 -168 -25
-59 -47 -73 -111 -73 -105 0 -162 69 -154 184 2 33 8 72 12 84 7 21 5 23 -16
20 -48 -6 -74 -110 -46 -188 17 -50 54 -106 80 -122 12 -8 45 -23 74 -32 88
-29 162 3 202 88 14 30 39 59 77 87 35 25 70 63 92 100 120 195 161 250 256
344 55 56 130 122 166 147 62 44 180 104 245 126 52 17 195 14 249 -6z
m-10286 -48 c216 -72 450 -279 597 -528 57 -97 105 -153 157 -184 16 -9 43
-42 59 -73 38 -70 69 -89 148 -89 82 0 135 30 178 101 29 46 33 62 33 122 0
77 -21 127 -53 127 -16 0 -18 -5 -12 -27 4 -16 9 -54 12 -86 4 -49 1 -64 -22
-102 -41 -71 -147 -109 -196 -72 -40 30 -59 80 -59 156 0 64 4 81 31 127 82
145 245 195 397 123 78 -37 140 -97 166 -159 10 -25 22 -53 27 -62 5 -10 9
-54 9 -99 0 -71 -4 -89 -30 -141 -33 -64 -37 -88 -17 -88 28 0 71 63 92 133
l11 38 57 -74 c31 -41 57 -79 57 -84 0 -29 -206 -131 -335 -166 -212 -59 -258
-60 -430 -15 -190 51 -319 117 -434 224 -85 78 -140 149 -308 394 -226 328
-298 403 -447 460 -23 9 -26 13 -16 25 40 48 211 58 328 19z m1182 -64 c109
-74 202 -176 425 -465 172 -223 373 -317 545 -255 139 49 206 211 118 285 -33
28 -43 30 -54 14 -3 -6 6 -23 20 -38 31 -33 35 -97 9 -138 -27 -40 -92 -83
-128 -83 -59 0 -135 113 -135 201 0 120 133 239 267 239 46 0 69 -6 108 -29
28 -16 56 -35 61 -43 15 -19 51 -139 69 -233 39 -194 87 -355 140 -472 40 -87
41 -99 8 -116 -50 -26 -148 -47 -219 -47 -252 1 -585 195 -772 450 -30 41 -69
91 -87 110 -17 19 -37 55 -44 80 -28 97 -89 180 -166 225 -23 14 -48 37 -55
52 -25 50 -101 165 -136 207 -19 23 -59 61 -89 85 -30 24 -52 47 -49 52 6 11
89 -30 164 -81z m6344 -225 c-37 -92 -61 -170 -75 -247 -5 -27 -13 -69 -18
-95 -31 -169 -108 -390 -199 -571 -92 -184 -283 -335 -472 -375 -179 -38 -176
-38 -273 -21 -228 39 -389 143 -466 299 -34 68 -35 74 -34 185 0 106 2 120 31
182 34 76 97 148 159 184 29 18 50 40 65 72 30 60 123 156 172 176 91 38 218
6 288 -72 47 -52 62 -82 83 -162 19 -74 12 -117 -37 -211 -51 -97 -126 -149
-213 -149 -85 1 -178 46 -203 98 -10 22 -8 31 13 68 30 51 30 54 6 54 -29 0
-71 -56 -71 -93 0 -59 61 -128 135 -154 114 -41 151 -39 253 10 37 18 48 19
76 9 105 -38 275 20 365 125 43 51 171 293 171 324 0 10 5 21 10 24 6 3 10 13
10 21 0 25 94 214 136 276 46 66 101 128 113 128 5 0 -6 -38 -25 -85z m-5002
-2 c46 -58 128 -184 128 -198 0 -3 13 -33 29 -67 15 -35 32 -74 36 -88 21 -70
91 -208 151 -302 61 -95 129 -142 252 -174 68 -18 91 -18 137 2 37 15 40 15
91 -10 69 -34 178 -36 251 -5 131 56 174 182 81 239 -28 17 -34 18 -36 5 -2
-8 6 -28 17 -44 31 -43 27 -74 -13 -109 -38 -33 -132 -72 -174 -72 -15 0 -49
11 -77 24 -166 77 -227 297 -127 458 26 42 78 90 121 113 43 22 129 29 180 15
55 -15 151 -103 193 -178 20 -35 44 -61 73 -78 131 -76 207 -245 191 -421 -8
-80 -21 -116 -68 -186 -100 -148 -310 -247 -525 -247 -92 0 -114 3 -233 37
-145 40 -286 149 -384 296 -51 77 -137 265 -171 374 -32 101 -50 173 -90 353
-21 93 -30 125 -66 220 -26 68 -36 110 -25 110 2 0 28 -30 58 -67z m2928 -303
c14 -142 21 -184 31 -194 5 -6 9 -17 9 -27 0 -24 39 -115 79 -184 65 -113 207
-225 285 -225 33 0 65 -29 72 -67 6 -31 5 -33 -23 -33 -49 0 -153 39 -213 80
-123 83 -217 222 -253 370 -24 101 -32 245 -16 331 14 83 15 81 29 -51z m-860
-66 c0 -81 -5 -165 -11 -188 -28 -106 -34 -125 -66 -186 -44 -86 -102 -152
-187 -211 -67 -48 -171 -89 -222 -89 -27 0 -28 2 -14 50 9 33 14 37 75 54 69
20 164 75 201 117 26 30 84 122 106 169 54 114 70 179 95 383 11 94 23 44 23
-99z m5131 -231 c17 -44 89 -336 89 -360 0 -27 1 -27 -47 -9 -21 8 -63 19 -94
26 -98 22 -280 -5 -404 -60 -11 -5 -60 -25 -110 -46 -49 -21 -117 -53 -150
-72 -96 -56 -304 -200 -385 -268 -152 -127 -486 -484 -610 -654 -78 -106 -237
-298 -320 -384 -93 -97 -165 -154 -267 -214 -59 -35 -58 -36 -105 55 -36 70
-78 125 -137 181 -56 54 -230 180 -291 213 -25 13 -47 25 -50 27 -11 8 36 32
62 32 49 0 286 67 378 107 146 63 317 167 440 267 156 126 320 309 391 436 23
40 23 40 83 40 96 1 265 26 362 55 49 15 98 29 108 32 40 12 161 75 220 115
33 23 95 74 137 114 51 50 85 74 100 74 42 0 160 38 245 80 103 50 212 124
283 190 29 27 55 50 57 50 3 0 9 -12 15 -27z m-9356 -63 c93 -99 336 -226 500
-260 52 -11 68 -21 125 -75 166 -158 324 -233 618 -294 30 -6 102 -11 162 -11
l108 0 28 -47 c140 -242 453 -513 759 -659 152 -72 311 -120 470 -142 28 -4
49 -11 49 -17 -1 -5 -21 -20 -45 -34 -56 -30 -167 -109 -244 -175 -88 -74
-149 -148 -192 -232 -22 -42 -44 -74 -53 -74 -8 0 -62 31 -120 69 -127 84
-242 198 -415 415 -224 280 -284 350 -466 536 -215 222 -245 248 -419 366
-253 173 -417 251 -656 313 -77 20 -214 14 -296 -14 -40 -14 -75 -25 -76 -25
-11 0 71 358 89 392 12 22 31 14 74 -32z m8138 -154 c53 -24 78 -32 200 -64
37 -10 69 -22 69 -27 1 -9 -72 -49 -137 -76 -74 -31 -193 -63 -305 -81 -84
-15 -368 -14 -445 0 -122 23 -147 30 -162 45 -13 13 -9 16 39 25 102 21 113
25 207 68 101 47 185 104 269 182 l54 50 79 -49 c44 -27 103 -60 132 -73z
m-6601 -57 c99 -68 256 -132 353 -146 25 -3 45 -9 45 -13 0 -13 -65 -33 -180
-56 -48 -10 -394 -10 -455 -1 -150 24 -328 84 -429 145 -12 7 34 31 59 32 61
1 253 80 341 141 78 53 82 53 149 -8 33 -31 86 -73 117 -94z m7032 -60 c-57
-63 -240 -167 -364 -208 -130 -43 -186 -51 -353 -51 -166 0 -243 11 -497 70
-47 11 -104 25 -128 30 -58 14 -243 13 -298 -1 -26 -7 -49 -8 -54 -3 -10 10
65 144 81 144 5 0 31 -11 58 -24 32 -17 74 -27 127 -32 43 -3 104 -15 134 -26
94 -34 117 -39 290 -70 104 -19 290 -12 460 17 147 25 345 95 420 149 27 19
48 25 89 26 54 0 54 0 35 -21z m-7744 -27 c47 -38 136 -78 230 -104 19 -5 51
-14 70 -19 156 -46 449 -71 564 -50 33 7 86 16 116 22 30 6 103 26 161 45 67
22 134 37 180 40 53 3 85 11 117 29 44 25 82 32 82 17 0 -5 16 -34 35 -66 19
-32 33 -62 30 -66 -3 -4 -22 -4 -42 1 -50 11 -272 11 -309 0 -16 -5 -101 -25
-189 -45 -88 -20 -182 -42 -210 -48 -71 -17 -408 -17 -465 0 -128 38 -183 58
-265 98 -90 43 -225 135 -225 153 0 9 23 15 70 20 9 0 31 -12 50 -27z m8526
-56 c90 -36 112 -47 118 -62 8 -21 38 -205 34 -209 -2 -2 -44 10 -93 26 -81
27 -101 30 -220 30 -101 0 -147 -4 -208 -20 -219 -59 -375 -151 -607 -356 -74
-65 -165 -159 -350 -360 -443 -481 -633 -662 -820 -783 -90 -59 -294 -162
-321 -162 -8 0 -25 20 -37 45 -85 176 -270 382 -397 445 -38 19 -88 46 -110
61 -57 38 -158 90 -242 124 -39 16 -69 33 -67 37 3 5 24 8 47 8 23 0 69 5 102
10 32 5 93 10 135 11 69 2 83 -1 150 -34 126 -61 253 -152 347 -249 59 -61
164 -224 157 -243 -10 -25 17 -26 59 -3 80 46 92 53 166 107 119 86 230 207
466 506 64 83 172 209 239 280 309 332 366 383 594 534 178 118 257 161 372
201 19 7 44 16 55 20 111 44 175 58 281 59 73 1 101 -3 150 -23z m-9171 -21
c119 -21 287 -80 416 -145 94 -47 390 -250 454 -310 222 -209 413 -410 530
-555 295 -368 415 -496 549 -586 103 -69 183 -112 195 -104 5 3 7 14 4 24 -8
31 113 207 195 283 87 79 223 173 312 215 91 43 95 44 148 33 26 -5 103 -12
172 -15 68 -4 126 -8 128 -9 1 -2 -28 -16 -65 -32 -90 -37 -223 -106 -278
-144 -24 -17 -75 -46 -114 -66 -120 -61 -288 -254 -368 -424 -16 -33 -34 -59
-41 -59 -12 -1 -61 19 -152 62 -69 33 -219 124 -280 170 -112 84 -386 344
-535 507 -482 526 -673 697 -905 815 -90 46 -98 49 -176 74 -167 53 -349 54
-498 3 l-89 -31 7 66 c14 135 22 156 69 180 123 62 190 72 322 48z m4494 -32
c10 -21 62 -79 115 -130 102 -97 109 -112 80 -163 -20 -32 -12 -78 14 -86 9
-4 31 -12 47 -19 44 -19 106 -35 138 -35 35 0 37 -31 2 -50 -50 -27 -142 -152
-196 -270 -33 -71 -41 -93 -69 -197 -16 -61 3 -84 100 -123 117 -47 176 -105
259 -254 12 -20 21 -42 21 -49 0 -8 -25 -24 -56 -37 -89 -36 -175 -130 -120
-130 7 0 47 20 89 44 86 48 156 62 255 51 76 -9 152 -34 152 -50 0 -7 -21 -27
-47 -44 -66 -42 -105 -80 -101 -99 5 -27 22 -24 84 16 171 111 223 127 399
127 114 0 135 -3 160 -20 17 -11 50 -29 75 -41 104 -49 200 -207 200 -329 0
-73 -97 -218 -170 -255 -83 -42 -121 -50 -260 -50 -74 1 -165 4 -201 9 -77 10
-226 -7 -304 -34 -54 -19 -172 -76 -415 -201 -182 -94 -249 -113 -332 -94 -64
15 -155 53 -223 93 -101 59 -372 186 -441 206 -59 17 -98 21 -225 21 -84 0
-190 -5 -236 -12 -102 -15 -155 -5 -272 51 -45 22 -114 100 -147 167 -22 45
-26 64 -22 116 8 133 101 259 238 326 68 34 84 37 174 40 162 6 241 -17 395
-116 46 -29 90 -51 97 -48 35 14 4 53 -99 124 -52 36 -56 42 -39 51 54 29 113
41 203 41 104 0 134 -8 216 -60 48 -31 93 -39 93 -18 0 24 -90 97 -141 115
-28 10 -53 23 -56 30 -8 20 78 162 128 214 50 51 86 73 164 101 66 24 98 60
89 102 -35 171 -127 343 -241 453 -59 57 -62 63 -44 72 11 6 30 11 43 11 13 0
50 12 83 25 33 14 65 25 72 25 29 0 38 62 12 91 -31 36 -17 65 81 163 50 48
100 106 112 127 12 21 28 39 35 39 7 0 21 -17 32 -37z m2451 -103 c126 -15
164 -21 200 -30 30 -7 60 -13 178 -36 l23 -5 -28 -50 c-41 -74 -213 -244 -320
-316 -162 -108 -454 -242 -643 -292 -25 -7 -59 -17 -76 -22 -17 -5 -42 -9 -57
-9 -15 0 -46 -4 -69 -10 -75 -16 -205 -29 -468 -45 -140 -9 -268 -20 -284 -26
-59 -19 -72 -5 -35 41 11 14 35 48 54 75 112 165 338 360 534 461 57 29 88 38
157 45 87 9 232 52 314 93 25 13 70 42 100 64 30 23 63 42 73 42 9 0 25 4 35
9 26 14 152 29 197 24 22 -2 74 -8 115 -13z m-4695 -19 c90 -18 101 -22 161
-67 34 -26 103 -61 163 -85 97 -38 148 -50 276 -65 57 -7 169 -60 275 -130 79
-51 263 -218 336 -304 47 -56 124 -164 124 -175 0 -4 -21 -4 -47 -1 -27 3
-129 10 -228 15 -326 17 -435 28 -625 62 -118 22 -195 45 -336 100 -257 100
-448 214 -593 354 -84 81 -171 189 -171 213 0 15 240 65 394 82 49 5 92 12 95
16 7 7 105 -1 176 -15z m1065 -171 c35 -22 94 -52 130 -66 36 -15 88 -37 115
-49 28 -12 82 -28 120 -35 106 -19 162 -44 257 -116 105 -78 206 -194 253
-288 39 -76 44 -114 18 -122 -124 -36 -291 -183 -335 -293 l-25 -65 -52 3
c-82 4 -228 -53 -274 -108 -24 -29 -25 -29 -83 -20 -174 30 -294 20 -396 -32
-10 -5 -26 -9 -37 -9 -34 0 -155 -68 -239 -135 -81 -64 -154 -152 -198 -238
-61 -119 -94 -230 -94 -311 l0 -68 -92 5 c-117 8 -184 19 -273 47 -111 35
-132 44 -265 109 -156 76 -248 135 -382 244 -88 71 -379 362 -519 517 -115
129 -354 369 -429 432 -123 103 -299 201 -440 247 -52 17 -93 22 -200 23 -134
1 -136 1 -195 -30 -33 -18 -72 -42 -87 -54 -15 -12 -30 -20 -32 -17 -11 11 20
317 33 333 16 19 99 59 157 75 102 28 336 3 499 -54 217 -76 472 -298 1095
-954 188 -198 292 -287 472 -404 94 -62 249 -144 333 -177 11 -4 33 -13 48
-19 15 -6 54 -11 86 -11 l59 0 13 63 c11 48 30 86 84 166 80 119 109 150 220
234 143 108 287 190 400 228 22 7 44 17 49 21 6 4 20 8 33 8 12 0 32 4 45 9
23 9 72 19 198 42 80 14 297 14 334 -1 37 -14 109 -13 124 2 7 7 12 21 12 33
0 46 -105 278 -175 386 -25 38 -45 72 -45 75 0 18 -90 131 -156 196 -79 77
-202 178 -217 178 -10 0 -37 26 -37 34 0 14 30 3 90 -34z m5942 -15 c44 -20
79 -43 82 -53 9 -27 25 -208 26 -276 l0 -60 -27 26 c-34 31 -84 59 -138 77
-45 14 -234 10 -315 -6 -104 -22 -270 -108 -410 -214 -110 -83 -342 -315 -525
-524 -107 -123 -442 -455 -521 -517 -131 -104 -289 -195 -464 -270 -14 -6 -33
-14 -42 -19 -10 -5 -25 -9 -33 -9 -8 0 -23 -4 -33 -9 -54 -27 -202 -59 -298
-64 l-81 -4 -6 61 c-6 57 -52 219 -80 276 -30 63 -103 167 -151 215 -58 59
-224 172 -265 181 -14 3 -44 12 -66 21 -114 43 -123 44 -263 40 -75 -3 -154
-8 -174 -12 -34 -6 -40 -4 -64 24 -31 37 -45 45 -133 77 -44 16 -87 24 -131
24 l-66 0 -13 45 c-20 67 -66 130 -141 193 -67 56 -156 108 -195 114 -46 7
-21 97 61 213 77 111 252 261 339 292 17 6 57 16 90 23 33 6 78 19 100 27 22
8 58 22 80 30 22 8 78 32 124 54 97 48 124 41 53 -13 -62 -48 -182 -164 -214
-208 -116 -156 -288 -502 -288 -578 0 -37 39 -48 107 -31 84 20 334 18 443 -5
47 -10 102 -20 123 -23 20 -3 40 -9 43 -14 3 -5 13 -9 23 -9 47 0 241 -93 355
-169 157 -105 236 -173 282 -241 24 -36 61 -91 83 -122 27 -40 40 -71 44 -109
4 -29 12 -56 18 -59 15 -10 94 -2 155 16 28 8 102 41 165 73 281 142 494 319
799 661 218 246 543 558 714 687 130 98 228 144 388 182 109 26 143 30 264 25
89 -3 109 -7 176 -39z m-36 -339 c84 -42 154 -119 154 -170 0 -18 -3 -35 -6
-39 -3 -3 -32 11 -64 32 -82 53 -198 91 -280 91 -81 0 -222 -44 -340 -107
-202 -108 -373 -266 -692 -638 -113 -132 -245 -279 -294 -326 -225 -217 -496
-389 -734 -465 -85 -27 -98 -30 -242 -64 -79 -18 -313 -41 -388 -38 -86 3 -83
-2 -55 108 23 90 11 183 -51 395 -21 72 -58 164 -91 228 -12 22 23 0 74 -47
107 -99 212 -332 216 -479 l2 -72 44 -9 c30 -6 67 -6 113 2 38 7 80 12 95 12
15 0 40 4 57 9 17 5 51 15 76 21 25 7 53 16 62 21 10 5 27 9 37 9 11 0 23 5
26 10 3 6 14 10 23 10 32 1 276 129 387 203 168 112 465 395 670 637 113 134
341 367 425 435 116 93 291 193 390 224 19 6 49 15 65 20 17 5 84 10 151 10
108 1 125 -1 170 -23z m-9269 -15 c142 -14 270 -67 452 -188 90 -60 372 -331
507 -488 198 -229 435 -457 614 -591 93 -70 328 -199 425 -234 11 -4 31 -12
45 -18 14 -5 45 -15 70 -22 25 -7 56 -16 70 -20 87 -28 183 -41 274 -38 l99 3
3 75 c4 159 115 400 230 498 27 23 50 38 52 33 2 -5 -9 -33 -23 -62 -27 -53
-61 -146 -75 -209 -33 -142 -40 -185 -40 -263 0 -55 6 -107 16 -139 14 -42 15
-51 3 -59 -26 -16 -128 -10 -374 22 -90 11 -260 51 -350 81 -98 32 -282 126
-400 202 -181 119 -350 272 -530 481 -350 406 -460 516 -645 646 -208 146
-440 211 -591 165 -57 -17 -143 -60 -186 -92 -17 -13 -34 -24 -37 -24 -12 0
-6 72 8 98 31 58 121 124 194 141 49 12 80 12 189 2z m9227 -222 c62 -29 117
-86 158 -166 l36 -68 -9 -125 c-4 -69 -11 -149 -15 -179 l-6 -54 -46 45 c-107
103 -253 173 -432 207 -118 22 -160 26 -297 26 -130 0 -140 1 -132 17 13 24
160 150 226 194 73 48 230 121 273 127 71 10 199 -3 244 -24z m-9127 -29 c62
-20 138 -57 209 -103 80 -50 244 -190 244 -208 0 -4 -80 -9 -177 -12 -242 -6
-364 -32 -518 -110 -62 -31 -161 -104 -183 -134 -34 -46 -43 -20 -54 163 l-11
169 32 63 c42 83 104 144 172 170 74 29 203 29 286 2z m8690 -329 c26 -6 80
-15 118 -22 144 -24 247 -68 357 -149 80 -59 123 -118 114 -155 -6 -25 -8 -24
-61 34 -62 66 -131 106 -251 143 -161 51 -241 62 -454 62 -120 0 -177 -6 -272
-30 -39 -9 -35 5 15 54 33 33 54 44 96 52 30 6 57 12 59 15 9 9 229 5 279 -4z
m-8170 -54 c36 -19 94 -77 88 -88 -3 -3 -24 -2 -47 3 -106 22 -219 28 -349 18
-167 -12 -222 -22 -339 -60 -132 -44 -187 -75 -252 -141 -32 -33 -60 -59 -63
-59 -3 0 -5 13 -5 29 0 59 107 159 237 221 103 49 90 45 218 71 113 23 168 27
320 25 126 -2 167 -6 192 -19z m8157 -128 c251 -44 396 -105 514 -216 60 -57
69 -85 53 -172 -20 -108 -41 -204 -52 -239 l-11 -33 -21 28 c-52 69 -208 219
-273 263 -79 54 -169 100 -195 100 -10 0 -20 4 -23 9 -3 5 -18 11 -33 14 -16
2 -53 11 -83 20 -147 40 -231 49 -389 45 -86 -3 -164 -8 -173 -13 -33 -14 -18
12 45 76 64 66 145 108 212 110 17 0 39 4 50 9 29 12 308 12 379 -1z m-8159
-29 c147 -17 204 -42 285 -124 64 -66 60 -84 -13 -66 -51 13 -286 8 -377 -9
-325 -58 -504 -161 -710 -409 -25 -31 -47 -49 -52 -44 -11 11 -56 205 -64 278
-11 88 3 113 106 193 126 99 286 154 555 190 69 9 134 7 270 -9z m7941 -211
c279 -64 416 -138 578 -310 111 -118 136 -155 129 -191 -5 -25 -33 -41 -33
-19 0 23 -107 144 -171 194 -81 61 -286 170 -389 204 -142 48 -195 55 -412 49
-112 -3 -230 -8 -263 -11 l-60 -7 38 40 c40 41 50 44 182 62 79 11 338 4 401
-11z m-7626 -23 c19 -4 45 -9 57 -12 25 -5 93 -61 93 -76 0 -6 -21 -8 -52 -5
-29 3 -105 10 -168 16 -153 14 -237 8 -425 -30 -60 -12 -62 -13 -200 -79 -206
-97 -313 -176 -397 -291 -28 -38 -54 -69 -58 -69 -4 0 -10 12 -13 28 -8 37 37
103 149 218 83 85 244 204 277 204 7 0 17 4 22 9 6 5 51 21 100 36 50 15 100
31 113 36 13 5 40 9 60 10 20 0 46 4 57 9 22 10 329 6 385 -4z m7410 -123 c0
-5 -18 -49 -39 -99 -95 -219 -141 -406 -158 -644 -10 -137 -10 -950 0 -1015
23 -147 47 -264 68 -334 11 -35 17 -66 14 -69 -10 -10 -119 72 -193 146 -95
95 -312 380 -312 408 0 4 -18 36 -40 70 -47 70 -91 172 -143 324 -50 149 -83
293 -116 515 -11 69 -18 322 -10 328 2 2 42 30 89 62 47 33 108 77 135 98 129
100 160 120 211 143 30 13 62 24 70 24 17 0 16 -17 -6 -95 -37 -131 -52 -398
-39 -669 18 -371 52 -593 119 -771 4 -11 13 -40 19 -65 24 -90 42 -119 54 -87
5 13 -6 89 -24 172 -22 101 -31 247 -32 530 -2 283 3 373 24 485 20 104 55
232 70 255 3 6 9 21 12 35 7 30 110 205 140 238 20 21 87 33 87 15z m-7522
-108 c132 -195 184 -378 212 -740 18 -236 2 -610 -33 -760 -39 -165 -9 -225
33 -65 7 25 16 53 21 62 5 10 9 29 9 42 0 14 4 27 9 30 10 7 20 41 31 116 4
30 16 96 25 145 25 138 36 276 42 555 3 168 1 279 -6 325 -7 39 -16 99 -22
135 -6 36 -20 93 -31 128 -11 35 -18 65 -16 67 6 6 118 -35 148 -54 14 -8 61
-43 105 -77 44 -33 121 -89 172 -122 51 -34 98 -72 104 -84 23 -43 -8 -362
-60 -608 -28 -135 -99 -347 -153 -455 -83 -167 -92 -182 -248 -400 -79 -110
-300 -325 -334 -325 -9 0 -7 55 2 66 12 13 50 204 72 364 14 99 8 768 -8 970
-21 260 -78 483 -178 694 -23 48 -25 59 -13 67 35 23 62 5 117 -76z m7622 -75
c0 -94 -20 -218 -62 -375 -24 -93 -72 -221 -117 -315 l-36 -75 -3 99 c-1 55 2
113 8 129 5 17 10 46 10 65 0 20 4 49 9 66 6 17 17 63 25 101 34 155 136 413
157 399 5 -3 9 -45 9 -94z m368 50 c54 -27 114 -64 136 -81 38 -32 38 -33 32
-88 -19 -180 -79 -435 -136 -576 -5 -11 -19 -49 -33 -85 -87 -227 -261 -558
-396 -750 -73 -106 -132 -180 -141 -180 -21 0 -37 104 -46 292 l-6 118 64 107
c145 242 262 511 317 728 30 122 40 167 51 230 7 39 16 83 21 99 5 16 9 76 9
132 0 88 2 104 16 104 9 0 59 -22 112 -50z m-8192 -3 c34 -53 86 -185 123
-312 54 -189 101 -525 72 -525 -26 0 -153 339 -192 516 -25 114 -47 354 -33
354 5 0 18 -15 30 -33z m-265 -59 c0 -40 4 -102 9 -138 9 -61 13 -85 39 -215
50 -252 178 -562 345 -838 l76 -125 0 -98 c0 -54 -4 -123 -10 -153 -5 -31 -13
-78 -17 -105 -4 -27 -13 -51 -20 -53 -11 -4 -65 64 -165 207 -41 58 -100 153
-161 260 -41 72 -175 348 -207 425 -18 44 -36 87 -39 95 -10 20 -77 235 -90
285 -28 113 -48 222 -57 307 l-6 67 46 33 c74 53 199 117 229 117 27 1 27 1
28 -71z m5861 -160 c0 -92 -4 -154 -12 -167 -6 -12 -10 -38 -8 -59 3 -36 5
-37 58 -50 40 -9 106 -12 244 -8 l190 6 -50 -51 c-27 -28 -74 -67 -104 -87
-30 -21 -89 -63 -130 -93 -76 -57 -220 -141 -314 -184 -171 -77 -209 -91 -276
-106 -25 -6 -65 -15 -90 -20 -123 -27 -168 -32 -575 -58 -77 -5 -194 -19 -260
-31 -103 -19 -156 -22 -375 -22 -219 0 -273 3 -380 22 -81 15 -199 26 -335 31
-251 10 -331 19 -530 57 -153 30 -446 166 -618 287 -55 38 -121 84 -148 102
-26 17 -69 53 -96 80 l-48 48 220 5 c164 4 227 9 248 20 31 15 31 15 7 110
-19 73 -23 197 -10 261 7 32 16 57 20 54 3 -2 13 -23 20 -46 18 -53 118 -155
186 -189 57 -28 145 -36 529 -48 275 -9 281 -10 490 -121 351 -186 398 -203
506 -182 34 7 91 28 126 47 36 19 68 34 73 34 4 0 50 24 101 53 120 67 272
140 324 154 88 25 181 33 364 33 231 0 370 14 425 42 60 31 151 122 182 184
16 31 31 51 36 46 5 -5 9 -74 10 -154z m2919 -25 c60 -63 89 -104 89 -127 0
-29 -102 -322 -172 -496 -82 -203 -230 -498 -342 -685 -119 -197 -317 -482
-356 -512 -18 -14 -23 -3 -52 111 l-19 80 40 55 c86 118 291 430 340 520 108
193 221 449 267 603 9 29 20 62 24 73 5 11 11 31 15 45 57 219 75 299 81 340
4 28 12 50 18 50 6 0 37 -26 67 -57z m-9146 -32 c16 -101 56 -250 115 -431
122 -371 329 -753 599 -1105 61 -78 61 -80 55 -130 -4 -27 -11 -58 -15 -67 -5
-9 -9 -28 -9 -41 0 -14 -7 -31 -16 -38 -20 -16 -33 -2 -158 171 -295 408 -536
874 -694 1345 -61 180 -61 180 24 278 73 84 88 87 99 18z m7324 -123 c26 -208
40 -286 72 -423 11 -49 24 -106 29 -125 13 -59 90 -279 121 -347 10 -24 28
-62 38 -86 11 -24 43 -83 71 -131 l50 -88 -39 -46 c-49 -58 -229 -233 -340
-331 -314 -274 -697 -530 -1056 -706 -212 -103 -294 -139 -395 -171 -25 -8
-54 -19 -65 -24 -31 -15 -265 -92 -307 -102 -21 -4 -55 -12 -75 -17 -311 -79
-544 -106 -908 -106 -375 0 -661 37 -967 124 -21 6 -53 15 -70 20 -50 13 -302
100 -353 121 -11 4 -45 18 -75 30 -123 50 -162 68 -325 151 -339 171 -669 391
-960 639 -162 137 -395 370 -395 394 0 12 9 35 20 51 19 28 110 210 131 263 5
12 13 32 19 45 17 41 93 271 102 312 44 194 78 405 87 525 6 94 6 95 31 93 14
0 42 -11 62 -23 l36 -21 7 -117 c8 -115 -4 -292 -26 -412 -24 -131 -32 -166
-39 -190 -4 -14 -13 -45 -20 -70 -22 -78 -81 -242 -111 -308 -37 -80 -38 -119
-4 -128 37 -9 311 172 485 320 91 79 212 208 254 274 43 67 49 73 65 60 113
-84 190 -133 289 -185 l117 -61 -1 -174 c-1 -159 -5 -197 -32 -298 -18 -70
-78 -233 -103 -282 -5 -10 -9 -22 -9 -27 0 -5 -24 -60 -53 -122 -74 -155 -84
-186 -71 -207 22 -34 75 -26 188 28 207 100 371 263 534 530 56 91 172 325
194 390 3 8 13 -12 22 -45 26 -94 45 -130 90 -173 58 -57 118 -86 160 -78 39
7 112 80 144 143 25 48 52 74 52 49 0 -18 39 -85 78 -131 23 -28 58 -54 74
-55 17 0 78 64 109 115 18 30 36 55 39 55 3 0 21 -33 40 -73 28 -58 40 -73 60
-75 32 -4 68 33 108 111 33 63 32 63 71 -15 23 -45 71 -98 90 -98 26 0 58 39
84 104 l24 57 43 -66 c48 -74 82 -105 115 -105 29 0 99 77 130 142 12 25 26
43 31 40 5 -4 28 -36 51 -72 95 -147 176 -157 296 -36 44 43 60 76 77 154 8
34 17 62 20 62 3 0 11 -15 19 -32 73 -172 211 -414 306 -538 60 -78 232 -242
296 -283 85 -53 228 -117 263 -117 62 0 60 56 -5 190 -75 154 -166 386 -197
505 -6 22 -15 59 -21 81 -6 23 -11 113 -11 201 l0 159 88 44 c90 46 279 167
302 194 20 26 38 19 67 -26 96 -151 295 -332 542 -495 157 -104 194 -123 222
-116 25 7 25 61 1 105 -22 39 -104 254 -122 318 -7 25 -16 56 -21 70 -10 30
-53 255 -69 362 -14 94 -11 343 4 364 12 16 98 62 107 58 3 -2 11 -45 18 -96z
m-319 -36 c0 -10 -380 -377 -455 -439 -117 -96 -298 -204 -425 -253 -30 -11
-64 -24 -75 -29 -11 -5 -40 -14 -65 -21 -25 -7 -56 -16 -70 -20 -14 -4 -56
-13 -95 -19 -38 -6 -97 -16 -129 -21 -33 -6 -139 -10 -235 -10 -166 -1 -223
-5 -366 -29 -129 -22 -253 -35 -327 -33 -92 2 -327 2 -465 0 -96 -1 -233 12
-343 33 -30 6 -174 14 -320 18 -146 5 -292 14 -325 20 -166 31 -230 45 -270
61 -11 5 -47 18 -80 31 -255 96 -449 236 -755 543 -154 155 -164 171 -86 146
17 -6 58 -17 91 -26 52 -15 71 -27 145 -98 91 -88 302 -248 397 -303 114 -65
278 -142 368 -172 163 -54 300 -79 500 -91 305 -20 421 -29 475 -39 30 -6 140
-20 243 -33 l189 -22 186 23 c103 12 212 27 242 32 114 21 201 29 390 38 107
6 222 14 255 19 82 13 290 63 340 82 299 115 520 254 763 479 99 91 101 92
172 111 25 6 56 15 70 20 33 11 60 12 60 2z m129 -387 c16 -94 31 -169 49
-235 8 -30 17 -70 19 -88 3 -18 9 -35 14 -38 5 -3 9 -12 9 -20 0 -8 19 -64 41
-125 23 -60 39 -112 36 -115 -18 -19 -411 278 -507 383 -27 30 -68 84 -90 121
l-41 67 98 92 c54 51 100 93 103 93 3 0 13 -26 24 -58 10 -31 31 -84 47 -117
16 -33 29 -65 29 -72 0 -6 3 -13 8 -15 4 -1 45 -60 91 -130 46 -70 91 -130 99
-133 29 -11 34 12 13 57 -69 152 -120 316 -150 484 -20 108 -16 123 37 177
l47 48 6 -153 c4 -84 12 -184 18 -223z m-5126 304 c43 -46 48 -55 42 -83 -3
-17 -8 -53 -11 -81 -5 -53 -8 -65 -50 -220 -28 -104 -50 -165 -91 -253 -30
-63 -23 -98 13 -74 18 11 160 235 198 310 19 37 44 96 57 132 12 36 25 69 29
73 4 4 38 -20 76 -53 103 -92 124 -117 117 -137 -9 -26 -87 -143 -120 -180
-77 -88 -462 -383 -499 -383 -12 0 -1 36 37 125 31 73 91 296 107 400 28 174
32 222 32 344 0 72 3 131 7 131 4 0 29 -23 56 -51z m4110 -856 c3 -87 9 -181
15 -209 16 -78 73 -246 103 -306 5 -10 9 -23 9 -29 0 -7 29 -72 65 -147 59
-122 74 -162 60 -162 -2 0 -41 18 -86 40 -101 49 -160 93 -263 195 -148 148
-253 310 -391 607 -26 56 -17 65 67 71 40 3 87 9 105 12 35 8 30 16 65 -120 5
-22 14 -48 19 -57 5 -10 9 -22 9 -28 0 -9 69 -152 101 -210 8 -14 33 -53 57
-87 23 -34 42 -64 42 -67 0 -17 73 -116 85 -116 24 0 26 17 6 62 -65 152 -115
336 -136 498 -21 161 -20 185 8 198 55 26 55 25 60 -145z m-3094 124 c14 -12
13 -33 -9 -222 -14 -120 -43 -233 -104 -400 -42 -116 -43 -125 -16 -125 13 0
27 14 41 43 12 23 45 76 73 117 89 130 171 315 216 488 9 36 14 42 33 38 12
-3 56 -8 97 -11 105 -9 108 -11 80 -77 -135 -315 -303 -555 -496 -709 -71 -56
-237 -146 -242 -131 -2 6 19 57 46 114 27 57 61 135 77 173 15 39 31 79 36 90
22 54 63 189 80 269 14 64 19 129 19 229 l0 139 27 -7 c16 -4 34 -12 42 -18z
m2446 -81 c18 -13 18 -17 5 -57 -31 -99 -79 -159 -157 -196 -29 -15 -33 -14
-62 6 -40 29 -155 201 -142 214 13 13 119 37 168 37 41 0 42 -1 48 -37 4 -21
11 -51 16 -67 5 -16 9 -42 9 -57 0 -16 4 -29 8 -29 12 0 32 46 32 72 0 17 7
50 26 116 4 16 26 15 49 -2z m-1809 -46 c8 -25 14 -57 14 -72 0 -31 19 -78 32
-78 4 0 8 10 8 23 0 34 28 159 38 169 17 17 219 -22 210 -41 -19 -38 -91 -144
-122 -178 -48 -54 -72 -55 -137 -7 -51 38 -87 90 -109 161 -16 53 -8 75 26 71
22 -2 29 -11 40 -48z m1371 -8 c22 -14 -19 -104 -75 -164 -14 -16 -29 -28 -33
-28 -10 0 -129 165 -129 179 0 15 113 14 128 -1 7 -7 12 -31 12 -54 0 -76 33
-64 44 15 7 53 25 71 53 53z m-947 -31 c0 -34 19 -91 30 -91 12 0 20 27 20 65
0 18 6 37 13 44 14 11 114 4 122 -8 4 -8 -86 -141 -108 -160 -8 -6 -21 -9 -30
-5 -23 9 -88 112 -94 150 -5 31 -4 34 21 34 22 0 26 -4 26 -29z m306 -10 c-8
-12 3 -41 15 -41 4 0 14 18 20 40 11 34 16 40 41 40 19 0 28 -5 28 -16 0 -22
-71 -152 -86 -158 -14 -5 -51 66 -61 116 -5 23 -2 34 12 45 16 11 20 11 28 -2
4 -8 6 -19 3 -24z m251 -1 c20 -49 33 -51 33 -5 0 23 6 38 16 42 35 13 39 -49
8 -124 -17 -40 -32 -49 -49 -32 -24 24 -85 141 -79 150 3 5 17 9 30 9 21 0 29
-8 41 -40z m3417 -589 c10 -21 -8 -43 -185 -221 -313 -316 -612 -556 -979
-787 -231 -146 -587 -328 -797 -409 -38 -14 -77 -30 -88 -34 -11 -5 -40 -16
-65 -24 -25 -8 -79 -27 -120 -42 -41 -14 -88 -30 -105 -35 -16 -4 -64 -17
-105 -29 -218 -63 -382 -96 -605 -122 -136 -16 -829 -16 -960 0 -258 31 -323
44 -650 131 -40 11 -275 89 -300 100 -11 5 -72 29 -135 54 -228 89 -454 200
-690 338 -269 157 -568 373 -820 593 -123 107 -422 403 -439 434 -8 16 5 33
90 117 l99 99 162 -161 c223 -220 387 -361 593 -509 87 -63 320 -214 329 -214
3 0 37 -19 78 -43 128 -75 349 -180 528 -252 52 -20 104 -41 115 -46 59 -24
274 -95 360 -119 323 -89 516 -123 903 -160 267 -26 626 -2 1027 69 108 19
183 37 380 91 310 86 750 268 1003 417 41 24 76 43 79 43 11 0 333 217 422
284 156 117 316 259 506 447 l180 178 91 -87 c50 -48 94 -93 98 -101z m125
-79 c25 -15 58 -34 74 -41 15 -8 27 -19 27 -25 0 -37 -402 -452 -603 -624
-245 -208 -561 -427 -838 -580 -68 -37 -357 -182 -364 -182 -2 0 -28 -11 -57
-24 -176 -80 -517 -200 -708 -250 -241 -63 -524 -114 -805 -147 -130 -15 -631
-15 -760 0 -399 47 -656 99 -990 200 -156 47 -400 137 -521 191 -27 12 -69 31
-94 42 -77 35 -292 144 -348 177 -29 17 -54 31 -56 31 -23 0 -411 257 -556
368 -239 183 -548 472 -728 680 -68 77 -83 102 -64 102 5 0 34 16 66 35 32 19
66 35 75 35 10 0 109 -91 220 -203 227 -226 287 -280 505 -450 386 -303 868
-582 1296 -752 52 -20 104 -41 115 -46 18 -8 258 -87 330 -108 91 -28 326 -81
450 -103 385 -67 953 -67 1360 1 123 20 404 87 510 122 17 5 73 23 125 40 273
88 688 281 970 451 146 88 186 114 310 198 294 201 491 368 780 661 124 125
227 227 229 228 2 1 25 -11 50 -27z"/>
<path d="M6188 9838 c-8 -13 -20 -43 -27 -68 -7 -25 -17 -56 -21 -70 -41 -129
-37 -450 9 -730 17 -106 46 -199 65 -212 14 -9 42 17 49 45 3 12 10 40 16 62
27 99 64 397 65 520 1 66 -17 238 -30 285 -27 95 -56 175 -68 182 -21 14 -44
8 -58 -14z"/>
</g>
</svg>
